<?xml version="1.0" encoding="UTF-8"?>
<svg id="Layer_2" data-name="Layer 2" xmlns="http://www.w3.org/2000/svg" viewBox="0 0 216.83 212.62">
  <defs>
    <style>
      .cls-1 {
        fill: #0f55b7;
      }
    </style>
  </defs>
  <g id="Layer_1-2" data-name="Layer 1">
    <g id="_1wmDN3" data-name="1wmDN3">
      <g>
        <path class="cls-1" d="M84.25,172.25h-40.43s-.04,40.36-.04,40.36H0s.02-37.81.02-37.81c.46-12.98,4.97-25.24,12.78-35.52,11.58-15.53,29.74-25.01,49.14-25.5,11.41-.29,22.37,2.17,32.32,7.68,7.79,4.31,14.66,9.89,20.22,16.86,8.67,10.85,13.38,24.11,13.44,38.07v36.23s-43.67,0-43.67,0v-40.36Z"/>
        <path class="cls-1" d="M62.37,102.08c-8.27-.03-15.76,1.47-23.79,3.96l25.19-33.6c4.86-4.45,10.21-7.73,16.22-10.42,12.21-5.35,25.69-6.72,38.82-4.2,8.08,1.63,15.63,4.84,22.44,9.49l-35.77,47.16c-12.83-8.5-27.57-12.79-43.12-12.38Z"/>
        <path class="cls-1" d="M148.51,57.86c-20.08-13.53-44.31-16.48-67.46-8.79l19.72-26.09c6.28-8.3,15.29-14.07,24.69-18.27,18.85-7.89,41.79-5.71,59.03,5.49l-11.82,15.7-24.17,31.96Z"/>
        <path class="cls-1" d="M139.63,194.64l-.1-20.89c-.04-8.08-1.75-15.8-4.67-23.33l18.3-25.39,15.55-21.06c1.54,5.05,2.35,9.85,2.36,14.93l.04,27.71-17.23,26.37-14.25,21.66Z"/>
        <path class="cls-1" d="M183.07,128.15l-.22-11.36c-.16-8.56-2.33-16.72-5.76-24.78l11.66-15.86,13.14-17.65,10.11-13.42c3.66,8.88,4.71,18.27,4.79,27.84l.03,4.02-16.88,25.79-16.88,25.43Z"/>
        <path class="cls-1" d="M128.98,138.38c-4.08-6.34-8.67-11.92-14.22-16.74l18.83-24.79,16.73-22.17c5.42,4.86,9.54,10.38,13.18,16.54l-20.79,28.62-13.73,18.54Z"/>
        <path class="cls-1" d="M170.98,80.48c-4.05-5.72-8.15-10.82-13.21-15.33l10.54-14.03,25.37-33.68c5.11,4.6,9.34,9.77,12.74,15.6l-23.49,31.44-11.96,16.01Z"/>
      </g>
    </g>
  </g>
</svg>