<?xml version="1.0" encoding="UTF-8"?>
<svg id="Layer_2" data-name="Layer 2" xmlns="http://www.w3.org/2000/svg" viewBox="0 0 414.2 212.62">
  <defs>
    <style>
      .cls-1 {
        fill: #0f55b7;
      }
    </style>
  </defs>
  <g id="Layer_1-2" data-name="Layer 1">
    <g>
      <g id="_1wmDN3" data-name="1wmDN3">
        <g>
          <path class="cls-1" d="M194.52,172.25h-40.43s-.04,40.36-.04,40.36h-43.78s.02-37.81.02-37.81c.46-12.98,4.97-25.24,12.78-35.52,11.58-15.53,29.74-25.01,49.14-25.5,11.41-.29,22.37,2.17,32.32,7.68,7.79,4.31,14.66,9.89,20.22,16.86,8.67,10.85,13.38,24.11,13.44,38.07v36.23s-43.67,0-43.67,0v-40.36Z"/>
          <path class="cls-1" d="M172.63,102.08c-8.27-.03-15.76,1.47-23.79,3.96l25.19-33.6c4.86-4.45,10.21-7.73,16.22-10.42,12.21-5.35,25.69-6.72,38.82-4.2,8.08,1.63,15.63,4.84,22.44,9.49l-35.77,47.16c-12.83-8.5-27.57-12.79-43.12-12.38Z"/>
          <path class="cls-1" d="M258.78,57.86c-20.08-13.53-44.31-16.48-67.46-8.79l19.72-26.09c6.28-8.3,15.29-14.07,24.69-18.27,18.85-7.89,41.79-5.71,59.03,5.49l-11.82,15.7-24.17,31.96Z"/>
          <path class="cls-1" d="M249.9,194.64l-.1-20.89c-.04-8.08-1.75-15.8-4.67-23.33l18.3-25.39,15.55-21.06c1.54,5.05,2.35,9.85,2.36,14.93l.04,27.71-17.23,26.37-14.25,21.66Z"/>
          <path class="cls-1" d="M293.33,128.15l-.22-11.36c-.16-8.56-2.33-16.72-5.76-24.78l11.66-15.86,13.14-17.65,10.11-13.42c3.66,8.88,4.71,18.27,4.79,27.84l.03,4.02-16.88,25.79-16.88,25.43Z"/>
          <path class="cls-1" d="M239.25,138.38c-4.08-6.34-8.67-11.92-14.22-16.74l18.83-24.79,16.73-22.17c5.42,4.86,9.54,10.38,13.18,16.54l-20.79,28.62-13.73,18.54Z"/>
          <path class="cls-1" d="M281.24,80.48c-4.05-5.72-8.15-10.82-13.21-15.33l10.54-14.03,25.37-33.68c5.11,4.6,9.34,9.77,12.74,15.6l-23.49,31.44-11.96,16.01Z"/>
        </g>
      </g>
      <g id="_1wmDN3-2" data-name="1wmDN3">
        <g>
          <path class="cls-1" d="M49.68,168.56h-23.84s-.03,23.8-.03,23.8H0s.01-22.3.01-22.3c.27-7.66,2.93-14.89,7.53-20.95,6.83-9.16,17.54-14.75,28.98-15.04,6.73-.17,13.19,1.28,19.06,4.53,4.59,2.54,8.65,5.83,11.92,9.94,5.11,6.4,7.89,14.22,7.92,22.45v21.37s-25.75,0-25.75,0v-23.8Z"/>
          <path class="cls-1" d="M36.78,127.18c-4.87-.02-9.3.87-14.03,2.33l14.86-19.82c2.86-2.62,6.02-4.56,9.57-6.15,7.2-3.16,15.15-3.96,22.89-2.48,4.77.96,9.22,2.85,13.23,5.59l-21.09,27.81c-7.56-5.01-16.26-7.54-25.43-7.3Z"/>
          <path class="cls-1" d="M87.58,101.1c-11.84-7.98-26.13-9.72-39.78-5.18l11.63-15.39c3.7-4.9,9.01-8.3,14.56-10.78,11.11-4.65,24.64-3.37,34.81,3.24l-6.97,9.26-14.25,18.85Z"/>
          <path class="cls-1" d="M82.34,181.76l-.06-12.32c-.02-4.76-1.03-9.32-2.75-13.76l10.79-14.97,9.17-12.42c.91,2.98,1.39,5.81,1.39,8.81l.02,16.34-10.16,15.55-8.4,12.77Z"/>
          <path class="cls-1" d="M107.95,142.55l-.13-6.7c-.1-5.05-1.37-9.86-3.4-14.61l6.88-9.35,7.75-10.41,5.96-7.91c2.16,5.24,2.78,10.77,2.83,16.42l.02,2.37-9.95,15.21-9.95,14.99Z"/>
          <path class="cls-1" d="M76.06,148.58c-2.41-3.74-5.11-7.03-8.39-9.87l11.1-14.62,9.87-13.07c3.19,2.86,5.62,6.12,7.77,9.75l-12.26,16.88-8.09,10.93Z"/>
          <path class="cls-1" d="M100.82,114.44c-2.39-3.38-4.81-6.38-7.79-9.04l6.22-8.28,14.96-19.86c3.02,2.71,5.51,5.76,7.52,9.2l-13.85,18.54-7.05,9.44Z"/>
        </g>
      </g>
      <g id="_1wmDN3-3" data-name="1wmDN3">
        <g>
          <path class="cls-1" d="M336.02,180.17h-23.84s-.03,23.8-.03,23.8h-25.82s.01-22.3.01-22.3c.27-7.66,2.93-14.89,7.53-20.95,6.83-9.16,17.54-14.75,28.98-15.04,6.73-.17,13.19,1.28,19.06,4.53,4.59,2.54,8.65,5.83,11.92,9.94,5.11,6.4,7.89,14.22,7.92,22.45v21.37s-25.75,0-25.75,0v-23.8Z"/>
          <path class="cls-1" d="M323.12,138.79c-4.87-.02-9.3.87-14.03,2.33l14.86-19.82c2.86-2.62,6.02-4.56,9.57-6.15,7.2-3.16,15.15-3.96,22.89-2.48,4.77.96,9.22,2.85,13.23,5.59l-21.09,27.81c-7.56-5.01-16.26-7.54-25.43-7.3Z"/>
          <path class="cls-1" d="M373.91,112.71c-11.84-7.98-26.13-9.72-39.78-5.18l11.63-15.39c3.7-4.9,9.01-8.3,14.56-10.78,11.11-4.65,24.64-3.37,34.81,3.24l-6.97,9.26-14.25,18.85Z"/>
          <path class="cls-1" d="M368.68,193.37l-.06-12.32c-.02-4.76-1.03-9.32-2.75-13.76l10.79-14.97,9.17-12.42c.91,2.98,1.39,5.81,1.39,8.81l.02,16.34-10.16,15.55-8.4,12.77Z"/>
          <path class="cls-1" d="M394.29,154.17l-.13-6.7c-.1-5.05-1.37-9.86-3.4-14.61l6.88-9.35,7.75-10.41,5.96-7.91c2.16,5.24,2.78,10.77,2.83,16.42l.02,2.37-9.95,15.21-9.95,14.99Z"/>
          <path class="cls-1" d="M362.4,160.2c-2.41-3.74-5.11-7.03-8.39-9.87l11.1-14.62,9.87-13.07c3.19,2.86,5.62,6.12,7.77,9.75l-12.26,16.88-8.09,10.93Z"/>
          <path class="cls-1" d="M387.16,126.06c-2.39-3.38-4.81-6.38-7.79-9.04l6.22-8.28,14.96-19.86c3.02,2.71,5.51,5.76,7.52,9.2l-13.85,18.54-7.05,9.44Z"/>
        </g>
      </g>
    </g>
  </g>
</svg>