<?xml version="1.0" encoding="UTF-8"?>
<svg id="Layer_2" data-name="Layer 2" xmlns="http://www.w3.org/2000/svg" viewBox="0 0 75.2 50.34">
  <defs>
    <style>
      .cls-1 {
        fill: #0f55b7;
        fill-rule: evenodd;
      }
    </style>
  </defs>
  <g id="Layer_1-2" data-name="Layer 1">
    <path class="cls-1" d="M26.06,28.29h-8.34l-.67-2c.08.24.12.5.12.77v5.33h12.37c.03-.18.04-.37.04-.56h0c0-1.94-1.59-3.53-3.53-3.53h0ZM47.91,30.14h1.52c.94,0,1.7.77,1.7,1.7v7.31c-1.24-1.78-3.22-3.01-5.49-3.25l-1.15-3.49h-1.52s-1.75,0-1.75,0h-5.83c.68-.88,1.28-1.53,2.03-2.18l-5.27-5.81-1.95,1.8c-.7.65-1.8.6-2.44-.09h0c-.65-.7-.6-1.8.09-2.44l5.8-5.37c.7-.65,1.8-.6,2.44.09h0c.65.7.6,1.8-.09,2.44l-2.22,2.06,5.39,5.94c.41-.3.86-.63,1.37-1.01l-7.32-23.19c-.44-1.4-1.19-2.68-2.65-2.68H11.6c-1.46,0-2.65,1.21-2.65,2.68v11.57c.33-.51.82-.92,1.44-1.13h0c1.44-.48,3.01.3,3.49,1.74l3.17,9.44c-.33-.96-1.24-1.65-2.31-1.65h-4.06l-1.73-5.15v5.15h-1.74V2.94c0-1.62,1.32-2.94,2.94-2.94h21.03c1.62,0,2.45,1.4,2.94,2.94l8.68,27.2s.09,0,.14,0h.85V1.53h4.14v14.93h23.14l4.15,1.96h-27.29v11.71h0ZM45.2,30.14h1.27v-11.71h-1.27v11.71h0ZM6.8,36.75c-3.75,0-6.8,3.04-6.8,6.8s3.04,6.8,6.8,6.8,6.8-3.04,6.8-6.8-3.04-6.8-6.8-6.8h0ZM6.8,40.87c1.48,0,2.68,1.2,2.68,2.68s-1.2,2.68-2.68,2.68-2.68-1.2-2.68-2.68c0-1.48,1.2-2.68,2.68-2.68h0ZM44.82,36.75c-3.75,0-6.8,3.04-6.8,6.8s3.04,6.8,6.8,6.8,6.8-3.04,6.8-6.8-3.04-6.8-6.8-6.8h0ZM44.82,40.87c1.48,0,2.68,1.2,2.68,2.68s-1.2,2.68-2.68,2.68-2.68-1.2-2.68-2.68,1.2-2.68,2.68-2.68h0ZM14.41,44.58c.05-.34.07-.68.07-1.03,0-4.24-3.44-7.69-7.69-7.69-2.36,0-4.47,1.06-5.88,2.73-.16-.32-.25-.68-.25-1.07v-9.76c0-1.33,1.09-2.41,2.41-2.41h10.74c1.33,0,2.41,1.09,2.41,2.41v5.35l27.48.02.92,2.73c-4.16.1-7.5,3.5-7.5,7.68,0,.35.02.7.07,1.03H14.41Z"/>
  </g>
</svg>