<?xml version="1.0" encoding="UTF-8"?>
<svg id="Layer_2" data-name="Layer 2" xmlns="http://www.w3.org/2000/svg" viewBox="0 0 144.83 139.42">
  <defs>
    <style>
      .cls-1 {
        fill: #0f55b7;
      }
    </style>
  </defs>
  <g id="Layer_1-2" data-name="Layer 1">
    <g>
      <path class="cls-1" d="M127.81,91.99l15.52,7.77c1.99,1,1.99,3.84,0,4.83l-68.5,34.26c-1.52.76-3.31.76-4.83,0L1.5,104.59c-1.33-.67-1.87-2.3-1.2-3.63.26-.52.68-.94,1.2-1.2l15.53-7.77,48.13,24.07c4.57,2.28,9.96,2.28,14.52,0l48.13-24.08h0ZM70,.57c1.52-.76,3.31-.76,4.83,0l68.5,34.25c1.34.68,1.87,2.31,1.19,3.65-.26.51-.68.93-1.19,1.19l-68.5,34.24c-1.52.76-3.31.76-4.83,0L1.5,39.66c-1.34-.67-1.88-2.29-1.21-3.63.26-.52.69-.95,1.21-1.21L70,.57Z"/>
      <path class="cls-1" d="M127.81,59.52l15.52,7.77c1.99,1,1.99,3.84,0,4.83l-68.5,34.25c-1.52.76-3.31.76-4.83,0L1.5,72.12c-1.33-.67-1.87-2.3-1.2-3.63.26-.52.68-.94,1.2-1.2l15.53-7.77,48.13,24.07c4.57,2.28,9.96,2.28,14.52,0l48.14-24.07Z"/>
    </g>
  </g>
</svg>